<svg xmlns="http://www.w3.org/2000/svg" width="96" height="96" viewBox="0 0 96 96" fill="none">
	<defs>
		<linearGradient id="g" x1="0" y1="0" x2="96" y2="96" gradientUnits="userSpaceOnUse">
			<stop stop-color="#38B2AC"/>
			<stop offset="1" stop-color="#2B6CB0"/>
		</linearGradient>
	</defs>
	<rect x="8" y="8" width="80" height="80" rx="20" fill="url(#g)"/>
	<path d="M38 30h16c9 0 14 4.5 14 12 0 5.9-3.2 9.6-8.8 11 6.6 1.2 10.8 5.6 10.8 12 0 8.4-6.4 13-17.6 13H38V30zm14.6 19c5.9 0 9-2.4 9-6.5 0-4.2-3.1-6.5-9-6.5H46v13h6.6zm1.6 25c7.1 0 10.8-2.5 10.8-7.4 0-4.6-3.8-7.6-10.5-7.6H46V74h8.2z" fill="#fff"/>
</svg>